<svg width="1118" height="296" viewBox="0 0 1118 296" fill="none" xmlns="http://www.w3.org/2000/svg">
<g filter="url(#filter0_d_2_442)">
<mask id="mask0_2_442" style="mask-type:alpha" maskUnits="userSpaceOnUse" x="4" y="0" width="1110" height="288">
<rect x="4" width="1110" height="288" rx="16" fill="#C4C4C4"/>
</mask>
<g mask="url(#mask0_2_442)">
<rect x="4" width="1110" height="288" rx="16" fill="#8C3F8F"/>
<path opacity="0.15" d="M734.287 206.714C616.471 122.077 454.106 220.981 325.429 154C258.479 119.15 244.901 87.7019 196.858 35.7143C166.043 2.3692 163.105 -3.43581 133.858 -27.2857C104.61 -51.1356 51.5723 -78.7142 51.5723 -78.7142V-166.143H1436.29V416.286H1105.86C1105.86 416.286 929.373 419.035 844.858 346.857C793.455 302.958 794.597 250.041 734.287 206.714Z" fill="white"/>
<path opacity="0.15" d="M781.857 178.714C664.041 94.0766 501.676 214.838 373 147.857C306.049 113.007 271 -10.5 251.5 -47C240.815 -67 224.5 -85 198 -99C171.5 -113 99.1426 -106.714 99.1426 -106.714V-194.143H1483.86V351.714H1174C1174 351.714 956.714 358.714 886 308.571C824.285 264.81 842.168 222.041 781.857 178.714Z" fill="white"/>
</g>
</g>
<path d="M302.207 115.006V77.0001H361.793V115.006H302.207Z" fill="#FF9201"/>
<path d="M361.793 115.006L336.906 95.7321C333.865 93.6411 329.838 93.63 326.785 95.7023C318.234 101.508 302.207 115.006 302.207 115.006H361.793Z" fill="#BCDCFF"/>
<path d="M327.761 95.144H327.586L302.206 77.0062L302.207 115.006C302.207 115.006 318.234 101.508 326.784 95.7023C327.099 95.4894 327.429 95.3128 327.761 95.144Z" fill="#A7D0FE"/>
<path d="M336.414 95.144H335.892C336.237 95.3205 336.58 95.5081 336.905 95.7321L361.793 115.006V77.0062L336.414 95.144Z" fill="#A7D0FE"/>
<path d="M361.793 77.0062L336.906 96.2801C333.864 98.3712 329.838 98.3822 326.785 96.3099C318.233 90.5047 302.207 77.0062 302.207 77.0062H361.793Z" fill="white"/>
<g clip-path="url(#clip0_2_442)">
<path d="M337.862 126.739L292.274 82.1731C286.583 76.6076 277.417 76.6076 271.725 82.1731L226.138 126.739V198H337.862V126.739Z" fill="#FF9201"/>
<rect x="242" y="94" width="80" height="104" rx="4" fill="white"/>
<g clip-path="url(#clip1_2_442)">
<path fill-rule="evenodd" clip-rule="evenodd" d="M262 129.5C266.142 129.5 269.5 126.142 269.5 122C269.5 117.858 266.142 114.5 262 114.5C257.858 114.5 254.5 117.858 254.5 122C254.5 126.142 257.858 129.5 262 129.5ZM262 134C268.627 134 274 128.627 274 122C274 115.373 268.627 110 262 110C255.373 110 250 115.373 250 122C250 128.627 255.373 134 262 134Z" fill="#2EC5CE"/>
<rect x="278" y="115" width="36" height="6" rx="0.5" fill="#2EC5CE"/>
<rect opacity="0.4" x="278" y="124" width="16" height="5" rx="0.5" fill="#2EC5CE"/>
</g>
<path d="M337.862 198L291.198 161.861C285.496 157.941 277.947 157.92 272.222 161.805C256.187 172.69 226.138 198 226.138 198H337.862Z" fill="#FFDC81"/>
<path d="M274.051 160.759H273.724L226.138 127.655V198C226.138 198 256.187 172.69 272.22 161.806C272.809 161.406 273.428 161.075 274.051 160.759Z" fill="#FFCA00"/>
<path d="M290.276 160.759H289.297C289.945 161.09 290.586 161.441 291.197 161.861L337.862 198V127.655L290.276 160.759Z" fill="#FFB800"/>
</g>
<path d="M191.207 211.006V173H250.793V211.006H191.207Z" fill="#FF9201"/>
<path d="M250.793 211.006L225.906 191.732C222.865 189.641 218.838 189.63 215.785 191.702C207.234 197.508 191.207 211.006 191.207 211.006H250.793Z" fill="#BCDCFF"/>
<path d="M216.761 191.144H216.586L191.206 173.006L191.207 211.006C191.207 211.006 207.234 197.508 215.784 191.702C216.099 191.489 216.429 191.313 216.761 191.144Z" fill="#A7D0FE"/>
<path d="M225.414 191.144H224.892C225.237 191.321 225.58 191.508 225.905 191.732L250.793 211.006V173.006L225.414 191.144Z" fill="#A7D0FE"/>
<path d="M250.793 173.006L225.906 192.28C222.864 194.371 218.838 194.382 215.785 192.31C207.233 186.505 191.207 173.006 191.207 173.006H250.793Z" fill="white"/>
<circle cx="334" cy="186" r="24" fill="white"/>
<g opacity="0.4">
<path d="M340 178.706C340 182.252 337.122 185.126 333.571 185.126C330.021 185.126 327.143 182.252 327.143 178.706C327.143 175.16 330.021 172.286 333.571 172.286C337.122 172.286 340 175.16 340 178.706Z" fill="#2EC5CE"/>
<path d="M346 199.679C346 199.679 337.913 199.759 332.714 199.679C328.517 199.614 322 199.679 322 199.679C322 199.679 323.714 186.838 334 186.838C344.286 186.838 346 199.679 346 199.679Z" fill="#2EC5CE"/>
</g>
<circle cx="352" cy="168" r="10" fill="#2EC5CE"/>
<path fill-rule="evenodd" clip-rule="evenodd" d="M352 163.333C352.322 163.333 352.583 163.594 352.583 163.917V167.417H356.083C356.406 167.417 356.667 167.678 356.667 168C356.667 168.322 356.406 168.583 356.083 168.583H352.583V172.083C352.583 172.405 352.322 172.667 352 172.667C351.678 172.667 351.417 172.405 351.417 172.083V168.583H347.917C347.595 168.583 347.333 168.322 347.333 168C347.333 167.678 347.595 167.417 347.917 167.417H351.417V163.917C351.417 163.594 351.678 163.333 352 163.333Z" fill="white"/>
<path d="M492.84 90.6C494.427 90.6 495.873 90.28 497.18 89.64C498.487 89 499.547 87.9733 500.36 86.56C500.733 85.92 500.98 85.3067 501.1 84.72C501.233 84.12 501.3 83.48 501.3 82.8C501.313 82.12 501.32 81.32 501.32 80.4V61.2H495.8V80.4C495.8 81.1333 495.787 81.78 495.76 82.34C495.733 82.9 495.64 83.3733 495.48 83.76C495.227 84.3733 494.807 84.82 494.22 85.1C493.647 85.38 493.107 85.52 492.6 85.52C491.867 85.52 491.173 85.2533 490.52 84.72C489.867 84.1733 489.48 83.5333 489.36 82.8L484 84.08C484.627 86.08 485.68 87.6667 487.16 88.84C488.653 90.0133 490.547 90.6 492.84 90.6ZM517.028 90.6C519.188 90.6 521.088 90.12 522.728 89.16C524.381 88.1867 525.668 86.8467 526.588 85.14C527.521 83.42 527.988 81.44 527.988 79.2C527.988 76.9733 527.528 75.0067 526.608 73.3C525.688 71.58 524.401 70.2333 522.748 69.26C521.108 68.2867 519.201 67.8 517.028 67.8C514.894 67.8 513.008 68.28 511.368 69.24C509.728 70.2 508.441 71.54 507.508 73.26C506.574 74.9667 506.108 76.9467 506.108 79.2C506.108 81.4267 506.561 83.4 507.468 85.12C508.388 86.8267 509.668 88.1667 511.308 89.14C512.948 90.1133 514.854 90.6 517.028 90.6ZM517.028 85.52C515.334 85.52 514.048 84.9533 513.168 83.82C512.301 82.6733 511.868 81.1333 511.868 79.2C511.868 77.32 512.281 75.8 513.108 74.64C513.948 73.4667 515.254 72.88 517.028 72.88C518.748 72.88 520.041 73.4533 520.908 74.6C521.788 75.7467 522.228 77.28 522.228 79.2C522.228 81.0533 521.794 82.5733 520.928 83.76C520.074 84.9333 518.774 85.52 517.028 85.52ZM532.786 65.4H538.226V60.6H532.786V65.4ZM532.786 90H538.226V68.4H532.786V90ZM544.182 90H549.702V79.04C549.702 77.6933 549.849 76.6133 550.142 75.8C550.449 74.9867 550.835 74.3733 551.302 73.96C551.769 73.5333 552.269 73.2467 552.802 73.1C553.335 72.9533 553.835 72.88 554.302 72.88C555.462 72.88 556.355 73.14 556.982 73.66C557.622 74.18 558.082 74.8267 558.362 75.6C558.642 76.3733 558.809 77.1467 558.862 77.92C558.915 78.68 558.942 79.3067 558.942 79.8V90H564.462V77.88C564.462 77.52 564.435 76.9467 564.382 76.16C564.329 75.3733 564.175 74.5067 563.922 73.56C563.669 72.6 563.242 71.68 562.642 70.8C562.055 69.92 561.229 69.1933 560.162 68.62C559.095 68.0467 557.715 67.76 556.022 67.76C554.462 67.76 553.102 68.02 551.942 68.54C550.782 69.06 549.809 69.7533 549.022 70.62V68.4H544.182V90ZM586.219 90.6C588.033 90.6 589.713 90.1733 591.259 89.32C592.806 88.4533 594.053 87.2933 594.999 85.84C595.946 84.3733 596.419 82.7333 596.419 80.92C596.419 79.1067 596.026 77.5 595.239 76.1C594.466 74.6867 593.386 73.58 591.999 72.78C590.626 71.9667 589.033 71.56 587.219 71.56C586.593 71.56 585.926 71.64 585.219 71.8C584.513 71.96 583.839 72.2133 583.199 72.56L583.599 66.28H594.499V61.2H578.779L577.899 76.52L582.499 77.92C582.819 77.6133 583.299 77.2933 583.939 76.96C584.579 76.6133 585.406 76.44 586.419 76.44C587.246 76.44 587.999 76.64 588.679 77.04C589.373 77.44 589.919 77.98 590.319 78.66C590.733 79.34 590.939 80.0933 590.939 80.92C590.939 81.7467 590.733 82.5 590.319 83.18C589.919 83.86 589.373 84.4 588.679 84.8C587.999 85.2 587.246 85.4 586.419 85.4C585.486 85.4 584.599 85.1 583.759 84.5C582.919 83.9 582.366 83.0933 582.099 82.08L576.859 83.48C577.259 84.8933 577.919 86.1333 578.839 87.2C579.759 88.2667 580.853 89.1 582.119 89.7C583.399 90.3 584.766 90.6 586.219 90.6ZM611.254 90.6C613.067 90.6 614.734 90.1733 616.254 89.32C617.774 88.4533 618.994 87.2933 619.914 85.84C620.834 84.3733 621.294 82.7333 621.294 80.92C621.294 79.1067 620.901 77.4933 620.114 76.08C619.341 74.6667 618.261 73.5533 616.874 72.74C615.501 71.9267 613.907 71.52 612.094 71.52C610.107 71.52 608.334 72.1133 606.774 73.3V70.84C606.774 69.96 606.981 69.1333 607.394 68.36C607.821 67.5733 608.414 66.94 609.174 66.46C609.947 65.9667 610.854 65.72 611.894 65.72C613.281 65.72 614.481 66.2267 615.494 67.24L619.374 63.36C618.321 62.3733 617.161 61.6733 615.894 61.26C614.627 60.8467 613.294 60.64 611.894 60.64C609.734 60.64 607.854 61.0867 606.254 61.98C604.654 62.86 603.414 64.1267 602.534 65.78C601.654 67.42 601.214 69.3733 601.214 71.64V80C601.214 82.0933 601.654 83.94 602.534 85.54C603.414 87.1267 604.607 88.3667 606.114 89.26C607.634 90.1533 609.347 90.6 611.254 90.6ZM611.254 85.4C610.427 85.4 609.674 85.1933 608.994 84.78C608.314 84.3667 607.774 83.82 607.374 83.14C606.974 82.46 606.774 81.72 606.774 80.92C606.774 80.0933 606.974 79.34 607.374 78.66C607.787 77.9667 608.334 77.42 609.014 77.02C609.707 76.6067 610.467 76.4 611.294 76.4C612.121 76.4 612.874 76.6067 613.554 77.02C614.234 77.42 614.774 77.9667 615.174 78.66C615.574 79.34 615.774 80.0933 615.774 80.92C615.774 81.7467 615.567 82.5 615.154 83.18C614.754 83.86 614.207 84.4 613.514 84.8C612.834 85.2 612.081 85.4 611.254 85.4ZM634.126 60.64C632.313 60.64 630.646 61.0733 629.126 61.94C627.606 62.7933 626.386 63.9533 625.466 65.42C624.546 66.8733 624.086 68.5067 624.086 70.32C624.086 72.1333 624.473 73.7467 625.246 75.16C626.033 76.5733 627.113 77.6867 628.486 78.5C629.873 79.3133 631.473 79.72 633.286 79.72C635.273 79.72 637.046 79.1267 638.606 77.94V80.4C638.606 81.28 638.393 82.1133 637.966 82.9C637.553 83.6733 636.959 84.3067 636.186 84.8C635.426 85.28 634.526 85.52 633.486 85.52C632.099 85.52 630.899 85.0133 629.886 84L626.006 87.88C627.059 88.8667 628.219 89.5667 629.486 89.98C630.753 90.3933 632.086 90.6 633.486 90.6C635.646 90.6 637.526 90.16 639.126 89.28C640.726 88.3867 641.966 87.12 642.846 85.48C643.726 83.8267 644.166 81.8667 644.166 79.6V71.24C644.166 69.1467 643.726 67.3067 642.846 65.72C641.966 64.12 640.766 62.8733 639.246 61.98C637.739 61.0867 636.033 60.64 634.126 60.64ZM634.126 65.84C634.953 65.84 635.706 66.0467 636.386 66.46C637.066 66.8733 637.606 67.42 638.006 68.1C638.406 68.78 638.606 69.52 638.606 70.32C638.606 71.1467 638.399 71.9067 637.986 72.6C637.586 73.28 637.039 73.8267 636.346 74.24C635.666 74.64 634.913 74.84 634.086 74.84C633.259 74.84 632.506 74.64 631.826 74.24C631.146 73.8267 630.606 73.28 630.206 72.6C629.806 71.9067 629.606 71.1467 629.606 70.32C629.606 69.4933 629.806 68.74 630.206 68.06C630.619 67.38 631.166 66.84 631.846 66.44C632.539 66.04 633.299 65.84 634.126 65.84ZM657.737 90H663.217V76.92C663.217 75.68 663.557 74.6733 664.237 73.9C664.93 73.1133 665.843 72.72 666.977 72.72C668.163 72.72 669.09 73.12 669.757 73.92C670.437 74.7067 670.777 75.8133 670.777 77.24V90H676.217V76.92C676.217 75.68 676.557 74.6733 677.237 73.9C677.93 73.1133 678.843 72.72 679.977 72.72C681.163 72.72 682.09 73.12 682.757 73.92C683.437 74.7067 683.777 75.8133 683.777 77.24V90H689.217V75.8C689.217 73.44 688.583 71.5333 687.317 70.08C686.063 68.6133 684.203 67.88 681.737 67.88C680.35 67.88 679.077 68.18 677.917 68.78C676.757 69.38 675.83 70.2 675.137 71.24C674.577 70.2267 673.777 69.4133 672.737 68.8C671.697 68.1867 670.403 67.88 668.857 67.88C667.55 67.88 666.35 68.14 665.257 68.66C664.163 69.1667 663.257 69.8667 662.537 70.76V68.4H657.737V90ZM703.747 90.6C705.907 90.6 707.807 90.12 709.447 89.16C711.1 88.1867 712.387 86.8467 713.307 85.14C714.24 83.42 714.707 81.44 714.707 79.2C714.707 76.9733 714.247 75.0067 713.327 73.3C712.407 71.58 711.12 70.2333 709.467 69.26C707.827 68.2867 705.92 67.8 703.747 67.8C701.613 67.8 699.727 68.28 698.087 69.24C696.447 70.2 695.16 71.54 694.227 73.26C693.293 74.9667 692.827 76.9467 692.827 79.2C692.827 81.4267 693.28 83.4 694.187 85.12C695.107 86.8267 696.387 88.1667 698.027 89.14C699.667 90.1133 701.573 90.6 703.747 90.6ZM703.747 85.52C702.053 85.52 700.767 84.9533 699.887 83.82C699.02 82.6733 698.587 81.1333 698.587 79.2C698.587 77.32 699 75.8 699.827 74.64C700.667 73.4667 701.973 72.88 703.747 72.88C705.467 72.88 706.76 73.4533 707.627 74.6C708.507 75.7467 708.947 77.28 708.947 79.2C708.947 81.0533 708.513 82.5733 707.647 83.76C706.793 84.9333 705.493 85.52 703.747 85.52ZM719.105 90H724.585V78.96C724.585 76.4533 725.571 74.7467 727.545 73.84C728.185 73.5333 728.898 73.3533 729.685 73.3C730.485 73.2333 731.185 73.2933 731.785 73.48V68.4C730.811 68.28 729.838 68.3067 728.865 68.48C727.891 68.64 727.011 68.96 726.225 69.44C725.718 69.7333 725.271 70.0867 724.885 70.5C724.511 70.9133 724.185 71.3733 723.905 71.88V68.4H719.105V90ZM745.238 90.6C747.318 90.6 749.232 90.0533 750.978 88.96C752.738 87.8667 754.025 86.3333 754.838 84.36L749.398 82.8C748.572 84.6133 747.078 85.52 744.918 85.52C743.438 85.52 742.272 85.1067 741.418 84.28C740.578 83.4533 740.058 82.2667 739.858 80.72H755.018C755.245 78.1067 754.978 75.8333 754.218 73.9C753.458 71.9667 752.285 70.4667 750.698 69.4C749.112 68.3333 747.185 67.8 744.918 67.8C742.785 67.8 740.898 68.2867 739.258 69.26C737.618 70.22 736.332 71.5733 735.398 73.32C734.465 75.0667 733.998 77.12 733.998 79.48C733.998 81.64 734.472 83.56 735.418 85.24C736.378 86.9067 737.698 88.22 739.378 89.18C741.072 90.1267 743.025 90.6 745.238 90.6ZM745.158 72.52C746.465 72.52 747.465 72.8467 748.158 73.5C748.865 74.1533 749.318 75.2133 749.518 76.68H739.998C740.572 73.9067 742.292 72.52 745.158 72.52ZM767.502 99.6H772.982V89.22C773.689 89.66 774.469 90 775.322 90.24C776.189 90.48 777.129 90.6 778.142 90.6C780.129 90.6 781.869 90.1 783.362 89.1C784.856 88.1 786.016 86.74 786.842 85.02C787.682 83.3 788.102 81.36 788.102 79.2C788.102 77 787.676 75.0467 786.822 73.34C785.982 71.62 784.796 70.2667 783.262 69.28C781.729 68.2933 779.929 67.8 777.862 67.8C776.742 67.8 775.716 67.96 774.782 68.28C773.862 68.5867 773.036 69.0267 772.302 69.6V68.4H767.502V99.6ZM777.262 85.76C775.449 85.76 774.169 85.16 773.422 83.96C772.676 82.7467 772.302 81.16 772.302 79.2C772.302 77.24 772.669 75.66 773.402 74.46C774.149 73.2467 775.369 72.64 777.062 72.64C778.276 72.64 779.269 72.94 780.042 73.54C780.829 74.1267 781.409 74.92 781.782 75.92C782.156 76.9067 782.342 78 782.342 79.2C782.342 80.4133 782.162 81.52 781.802 82.52C781.442 83.5067 780.889 84.2933 780.142 84.88C779.396 85.4667 778.436 85.76 777.262 85.76ZM802.543 90.6C804.623 90.6 806.536 90.0533 808.283 88.96C810.043 87.8667 811.33 86.3333 812.143 84.36L806.703 82.8C805.876 84.6133 804.383 85.52 802.223 85.52C800.743 85.52 799.576 85.1067 798.723 84.28C797.883 83.4533 797.363 82.2667 797.163 80.72H812.323C812.55 78.1067 812.283 75.8333 811.523 73.9C810.763 71.9667 809.59 70.4667 808.003 69.4C806.416 68.3333 804.49 67.8 802.223 67.8C800.09 67.8 798.203 68.2867 796.563 69.26C794.923 70.22 793.636 71.5733 792.703 73.32C791.77 75.0667 791.303 77.12 791.303 79.48C791.303 81.64 791.776 83.56 792.723 85.24C793.683 86.9067 795.003 88.22 796.683 89.18C798.376 90.1267 800.33 90.6 802.543 90.6ZM802.463 72.52C803.77 72.52 804.77 72.8467 805.463 73.5C806.17 74.1533 806.623 75.2133 806.823 76.68H797.303C797.876 73.9067 799.596 72.52 802.463 72.52ZM826.559 90.6C828.719 90.6 830.619 90.12 832.259 89.16C833.912 88.1867 835.199 86.8467 836.119 85.14C837.052 83.42 837.519 81.44 837.519 79.2C837.519 76.9733 837.059 75.0067 836.139 73.3C835.219 71.58 833.932 70.2333 832.279 69.26C830.639 68.2867 828.732 67.8 826.559 67.8C824.426 67.8 822.539 68.28 820.899 69.24C819.259 70.2 817.972 71.54 817.039 73.26C816.106 74.9667 815.639 76.9467 815.639 79.2C815.639 81.4267 816.092 83.4 816.999 85.12C817.919 86.8267 819.199 88.1667 820.839 89.14C822.479 90.1133 824.386 90.6 826.559 90.6ZM826.559 85.52C824.866 85.52 823.579 84.9533 822.699 83.82C821.832 82.6733 821.399 81.1333 821.399 79.2C821.399 77.32 821.812 75.8 822.639 74.64C823.479 73.4667 824.786 72.88 826.559 72.88C828.279 72.88 829.572 73.4533 830.439 74.6C831.319 75.7467 831.759 77.28 831.759 79.2C831.759 81.0533 831.326 82.5733 830.459 83.76C829.606 84.9333 828.306 85.52 826.559 85.52ZM841.877 99.6H847.357V89.22C848.064 89.66 848.844 90 849.697 90.24C850.564 90.48 851.504 90.6 852.517 90.6C854.504 90.6 856.244 90.1 857.737 89.1C859.231 88.1 860.391 86.74 861.217 85.02C862.057 83.3 862.477 81.36 862.477 79.2C862.477 77 862.051 75.0467 861.197 73.34C860.357 71.62 859.171 70.2667 857.637 69.28C856.104 68.2933 854.304 67.8 852.237 67.8C851.117 67.8 850.091 67.96 849.157 68.28C848.237 68.5867 847.411 69.0267 846.677 69.6V68.4H841.877V99.6ZM851.637 85.76C849.824 85.76 848.544 85.16 847.797 83.96C847.051 82.7467 846.677 81.16 846.677 79.2C846.677 77.24 847.044 75.66 847.777 74.46C848.524 73.2467 849.744 72.64 851.437 72.64C852.651 72.64 853.644 72.94 854.417 73.54C855.204 74.1267 855.784 74.92 856.157 75.92C856.531 76.9067 856.717 78 856.717 79.2C856.717 80.4133 856.537 81.52 856.177 82.52C855.817 83.5067 855.264 84.2933 854.517 84.88C853.771 85.4667 852.811 85.76 851.637 85.76ZM867.278 90H872.718V60.6H867.278V90ZM888.754 90.6C890.834 90.6 892.747 90.0533 894.494 88.96C896.254 87.8667 897.541 86.3333 898.354 84.36L892.914 82.8C892.087 84.6133 890.594 85.52 888.434 85.52C886.954 85.52 885.787 85.1067 884.934 84.28C884.094 83.4533 883.574 82.2667 883.374 80.72H898.534C898.761 78.1067 898.494 75.8333 897.734 73.9C896.974 71.9667 895.801 70.4667 894.214 69.4C892.627 68.3333 890.701 67.8 888.434 67.8C886.301 67.8 884.414 68.2867 882.774 69.26C881.134 70.22 879.847 71.5733 878.914 73.32C877.981 75.0667 877.514 77.12 877.514 79.48C877.514 81.64 877.987 83.56 878.934 85.24C879.894 86.9067 881.214 88.22 882.894 89.18C884.587 90.1267 886.541 90.6 888.754 90.6ZM888.674 72.52C889.981 72.52 890.981 72.8467 891.674 73.5C892.381 74.1533 892.834 75.2133 893.034 76.68H883.514C884.087 73.9067 885.807 72.52 888.674 72.52ZM487.2 119.4H492.64V114.6H487.2V119.4ZM487.2 144H492.64V122.4H487.2V144ZM498.596 144H504.116V133.04C504.116 131.693 504.263 130.613 504.556 129.8C504.863 128.987 505.249 128.373 505.716 127.96C506.183 127.533 506.683 127.247 507.216 127.1C507.749 126.953 508.249 126.88 508.716 126.88C509.876 126.88 510.769 127.14 511.396 127.66C512.036 128.18 512.496 128.827 512.776 129.6C513.056 130.373 513.223 131.147 513.276 131.92C513.329 132.68 513.356 133.307 513.356 133.8V144H518.876V131.88C518.876 131.52 518.849 130.947 518.796 130.16C518.743 129.373 518.589 128.507 518.336 127.56C518.083 126.6 517.656 125.68 517.056 124.8C516.469 123.92 515.643 123.193 514.576 122.62C513.509 122.047 512.129 121.76 510.436 121.76C508.876 121.76 507.516 122.02 506.356 122.54C505.196 123.06 504.223 123.753 503.436 124.62V122.4H498.596V144ZM545.033 144V139.48C543.753 139.653 542.587 139.707 541.533 139.64C540.48 139.573 539.713 139.16 539.233 138.4C538.98 138 538.84 137.467 538.813 136.8C538.8 136.12 538.793 135.36 538.793 134.52V126.6H545.033V122.4H538.793V116.4H533.353V122.4H529.673V126.6H533.353V134.84C533.353 136.133 533.367 137.293 533.393 138.32C533.42 139.333 533.7 140.333 534.233 141.32C534.82 142.373 535.673 143.14 536.793 143.62C537.927 144.087 539.207 144.333 540.633 144.36C542.073 144.4 543.54 144.28 545.033 144ZM549.807 144H555.327V133.04C555.327 131.693 555.474 130.613 555.767 129.8C556.074 128.987 556.46 128.373 556.927 127.96C557.394 127.533 557.894 127.247 558.427 127.1C558.96 126.953 559.46 126.88 559.927 126.88C561.087 126.88 561.98 127.14 562.607 127.66C563.247 128.18 563.707 128.827 563.987 129.6C564.267 130.373 564.434 131.147 564.487 131.92C564.54 132.68 564.567 133.307 564.567 133.8V144H570.087V131.88C570.087 131.52 570.06 130.947 570.007 130.16C569.954 129.373 569.8 128.507 569.547 127.56C569.294 126.6 568.867 125.68 568.267 124.8C567.68 123.92 566.854 123.193 565.787 122.62C564.72 122.047 563.34 121.76 561.647 121.76C560.087 121.76 558.727 122.02 557.567 122.54C556.407 123.06 555.434 123.753 554.647 124.62V115.2H549.807V144ZM585.317 144.6C587.397 144.6 589.31 144.053 591.057 142.96C592.817 141.867 594.103 140.333 594.917 138.36L589.477 136.8C588.65 138.613 587.157 139.52 584.997 139.52C583.517 139.52 582.35 139.107 581.497 138.28C580.657 137.453 580.137 136.267 579.937 134.72H595.097C595.323 132.107 595.057 129.833 594.297 127.9C593.537 125.967 592.363 124.467 590.777 123.4C589.19 122.333 587.263 121.8 584.997 121.8C582.863 121.8 580.977 122.287 579.337 123.26C577.697 124.22 576.41 125.573 575.477 127.32C574.543 129.067 574.077 131.12 574.077 133.48C574.077 135.64 574.55 137.56 575.497 139.24C576.457 140.907 577.777 142.22 579.457 143.18C581.15 144.127 583.103 144.6 585.317 144.6ZM585.237 126.52C586.543 126.52 587.543 126.847 588.237 127.5C588.943 128.153 589.397 129.213 589.597 130.68H580.077C580.65 127.907 582.37 126.52 585.237 126.52ZM607.58 144H613.06V130.92C613.06 129.68 613.4 128.673 614.08 127.9C614.774 127.113 615.687 126.72 616.82 126.72C618.007 126.72 618.934 127.12 619.6 127.92C620.28 128.707 620.62 129.813 620.62 131.24V144H626.06V130.92C626.06 129.68 626.4 128.673 627.08 127.9C627.774 127.113 628.687 126.72 629.82 126.72C631.007 126.72 631.934 127.12 632.6 127.92C633.28 128.707 633.62 129.813 633.62 131.24V144H639.06V129.8C639.06 127.44 638.427 125.533 637.16 124.08C635.907 122.613 634.047 121.88 631.58 121.88C630.194 121.88 628.92 122.18 627.76 122.78C626.6 123.38 625.674 124.2 624.98 125.24C624.42 124.227 623.62 123.413 622.58 122.8C621.54 122.187 620.247 121.88 618.7 121.88C617.394 121.88 616.194 122.14 615.1 122.66C614.007 123.167 613.1 123.867 612.38 124.76V122.4H607.58V144ZM650.261 144.6C651.928 144.6 653.328 144.347 654.461 143.84C655.608 143.32 656.661 142.493 657.621 141.36V144H662.381V130.8C662.381 129.813 662.341 128.92 662.261 128.12C662.181 127.32 661.928 126.52 661.501 125.72C660.741 124.28 659.621 123.267 658.141 122.68C656.661 122.093 654.968 121.8 653.061 121.8C650.461 121.8 648.408 122.36 646.901 123.48C645.394 124.6 644.368 126.053 643.821 127.84L648.741 129.4C649.088 128.413 649.694 127.727 650.561 127.34C651.428 126.953 652.261 126.76 653.061 126.76C654.341 126.76 655.294 127 655.921 127.48C656.548 127.947 656.914 128.687 657.021 129.7C654.994 129.993 653.208 130.28 651.661 130.56C650.114 130.827 648.821 131.147 647.781 131.52C646.048 132.16 644.828 133.033 644.121 134.14C643.414 135.233 643.061 136.533 643.061 138.04C643.061 139.24 643.334 140.34 643.881 141.34C644.441 142.327 645.254 143.12 646.321 143.72C647.401 144.307 648.714 144.6 650.261 144.6ZM651.421 140.32C650.488 140.32 649.748 140.113 649.201 139.7C648.654 139.273 648.381 138.693 648.381 137.96C648.381 137.413 648.554 136.947 648.901 136.56C649.248 136.16 649.821 135.8 650.621 135.48C651.234 135.253 651.988 135.047 652.881 134.86C653.788 134.66 655.154 134.407 656.981 134.1C656.968 134.62 656.928 135.193 656.861 135.82C656.794 136.433 656.648 136.973 656.421 137.44C656.274 137.747 655.994 138.127 655.581 138.58C655.181 139.033 654.634 139.44 653.941 139.8C653.261 140.147 652.421 140.32 651.421 140.32ZM667.981 119.4H673.421V114.6H667.981V119.4ZM667.981 144H673.421V122.4H667.981V144ZM679.817 144H685.257V114.6H679.817V144ZM690.853 133.48H702.853V129.28H690.853V133.48ZM708.45 144H713.89V114.6H708.45V144ZM720.286 119.4H725.726V114.6H720.286V119.4ZM720.286 144H725.726V122.4H720.286V144ZM740.162 144.6C742.989 144.6 745.202 143.967 746.802 142.7C748.402 141.433 749.202 139.693 749.202 137.48C749.202 135.8 748.682 134.473 747.642 133.5C746.615 132.527 744.869 131.72 742.402 131.08C740.722 130.653 739.469 130.307 738.642 130.04C737.829 129.773 737.289 129.513 737.022 129.26C736.769 129.007 736.642 128.693 736.642 128.32C736.642 127.693 736.942 127.213 737.542 126.88C738.155 126.547 738.962 126.413 739.962 126.48C742.082 126.64 743.242 127.547 743.442 129.2L749.002 128.2C748.722 126.24 747.762 124.687 746.122 123.54C744.482 122.38 742.389 121.8 739.842 121.8C737.229 121.8 735.142 122.413 733.582 123.64C732.022 124.867 731.242 126.52 731.242 128.6C731.242 130.253 731.782 131.56 732.862 132.52C733.942 133.467 735.802 134.28 738.442 134.96C740.002 135.373 741.149 135.707 741.882 135.96C742.629 136.213 743.109 136.473 743.322 136.74C743.535 136.993 743.642 137.333 743.642 137.76C743.642 138.44 743.375 138.973 742.842 139.36C742.309 139.733 741.549 139.92 740.562 139.92C739.362 139.92 738.369 139.633 737.582 139.06C736.809 138.487 736.309 137.693 736.082 136.68L730.522 137.52C730.882 139.773 731.895 141.52 733.562 142.76C735.242 143.987 737.442 144.6 740.162 144.6ZM766.557 144V139.48C765.277 139.653 764.11 139.707 763.057 139.64C762.004 139.573 761.237 139.16 760.757 138.4C760.504 138 760.364 137.467 760.337 136.8C760.324 136.12 760.317 135.36 760.317 134.52V126.6H766.557V122.4H760.317V116.4H754.877V122.4H751.197V126.6H754.877V134.84C754.877 136.133 754.89 137.293 754.917 138.32C754.944 139.333 755.224 140.333 755.757 141.32C756.344 142.373 757.197 143.14 758.317 143.62C759.45 144.087 760.73 144.333 762.157 144.36C763.597 144.4 765.064 144.28 766.557 144Z" fill="white"/>
<path d="M484 193C484 190.239 486.239 188 489 188H732V240H489C486.239 240 484 237.761 484 235V193Z" fill="#F4F5F7"/>
<path d="M503.381 219H504.417V214.779L507.784 208.92H506.594L503.899 213.603L501.19 208.92H500L503.381 214.779V219ZM510.795 219.21C511.542 219.21 512.181 219.042 512.713 218.706C513.25 218.37 513.661 217.903 513.945 217.306C514.235 216.704 514.379 216.006 514.379 215.213C514.379 214.434 514.237 213.745 513.952 213.148C513.672 212.546 513.264 212.077 512.727 211.741C512.195 211.4 511.551 211.23 510.795 211.23C510.058 211.23 509.421 211.398 508.884 211.734C508.352 212.065 507.942 212.53 507.652 213.127C507.363 213.724 507.218 214.42 507.218 215.213C507.218 215.992 507.358 216.683 507.638 217.285C507.923 217.887 508.331 218.358 508.863 218.699C509.4 219.04 510.044 219.21 510.795 219.21ZM510.795 218.223C509.979 218.223 509.36 217.95 508.94 217.404C508.52 216.853 508.31 216.123 508.31 215.213C508.31 214.331 508.513 213.612 508.919 213.057C509.325 212.497 509.951 212.217 510.795 212.217C511.631 212.217 512.254 212.49 512.664 213.036C513.08 213.577 513.287 214.303 513.287 215.213C513.287 216.104 513.082 216.83 512.671 217.39C512.261 217.945 511.635 218.223 510.795 218.223ZM518.814 219.189C519.356 219.189 519.843 219.086 520.277 218.881C520.716 218.671 521.075 218.361 521.355 217.95V219H522.279V211.44H521.25V215.472C521.25 216.326 521.059 216.996 520.676 217.481C520.294 217.966 519.738 218.209 519.01 218.209C518.483 218.209 518.058 218.083 517.736 217.831C517.414 217.574 517.181 217.227 517.036 216.788C516.892 216.349 516.819 215.852 516.819 215.297V211.44H515.783V215.598C515.783 216.023 515.835 216.447 515.937 216.872C516.045 217.297 516.215 217.684 516.448 218.034C516.682 218.384 516.992 218.664 517.379 218.874C517.771 219.084 518.25 219.189 518.814 219.189ZM524.236 219H525.265V215.227C525.265 214.774 525.316 214.324 525.419 213.876C525.526 213.423 525.769 213.048 526.147 212.749C526.422 212.525 526.721 212.397 527.043 212.364C527.37 212.327 527.673 212.341 527.953 212.406V211.44C527.622 211.356 527.246 211.354 526.826 211.433C526.406 211.508 526.047 211.676 525.748 211.937C525.524 212.105 525.328 212.338 525.16 212.637V211.44H524.236V219ZM533.694 219H534.59L536.473 212.98L538.363 219H539.259L541.569 211.44H540.547L538.741 217.313L536.942 211.44H536.004L534.205 217.313L532.413 211.44L531.384 211.433L533.694 219ZM545.713 219.21C546.46 219.21 547.099 219.042 547.631 218.706C548.168 218.37 548.579 217.903 548.863 217.306C549.153 216.704 549.297 216.006 549.297 215.213C549.297 214.434 549.155 213.745 548.87 213.148C548.59 212.546 548.182 212.077 547.645 211.741C547.113 211.4 546.469 211.23 545.713 211.23C544.976 211.23 544.339 211.398 543.802 211.734C543.27 212.065 542.86 212.53 542.57 213.127C542.281 213.724 542.136 214.42 542.136 215.213C542.136 215.992 542.276 216.683 542.556 217.285C542.841 217.887 543.249 218.358 543.781 218.699C544.318 219.04 544.962 219.21 545.713 219.21ZM545.713 218.223C544.897 218.223 544.278 217.95 543.858 217.404C543.438 216.853 543.228 216.123 543.228 215.213C543.228 214.331 543.431 213.612 543.837 213.057C544.243 212.497 544.869 212.217 545.713 212.217C546.549 212.217 547.172 212.49 547.582 213.036C547.998 213.577 548.205 214.303 548.205 215.213C548.205 216.104 548 216.83 547.589 217.39C547.179 217.945 546.553 218.223 545.713 218.223ZM550.841 219H551.87V215.227C551.87 214.774 551.922 214.324 552.024 213.876C552.132 213.423 552.374 213.048 552.752 212.749C553.028 212.525 553.326 212.397 553.648 212.364C553.975 212.327 554.278 212.341 554.558 212.406V211.44C554.227 211.356 553.851 211.354 553.431 211.433C553.011 211.508 552.652 211.676 552.353 211.937C552.129 212.105 551.933 212.338 551.765 212.637V211.44H550.841V219ZM555.879 219H556.922V215.36L560.632 219H562.13L558.126 215.22L561.668 211.44H560.296L556.922 215.08V208.92H555.886L555.879 219ZM568.833 219.21C569.566 219.21 570.222 219.03 570.8 218.671C571.384 218.312 571.825 217.801 572.123 217.138L571.164 216.767C570.684 217.738 569.893 218.223 568.791 218.223C568.035 218.223 567.443 217.987 567.013 217.516C566.589 217.045 566.355 216.375 566.313 215.507H572.27C572.308 214.172 572.016 213.127 571.395 212.371C570.779 211.61 569.911 211.23 568.791 211.23C568.063 211.23 567.431 211.393 566.894 211.72C566.362 212.047 565.949 212.511 565.655 213.113C565.361 213.715 565.214 214.429 565.214 215.255C565.214 216.053 565.361 216.748 565.655 217.341C565.954 217.934 566.374 218.393 566.915 218.72C567.461 219.047 568.101 219.21 568.833 219.21ZM568.819 212.175C570.243 212.175 571.034 212.999 571.192 214.646H566.334C566.414 213.848 566.666 213.237 567.09 212.812C567.515 212.387 568.091 212.175 568.819 212.175ZM573.612 219H574.648V214.121C574.648 213.528 574.809 213.055 575.131 212.7C575.453 212.341 575.875 212.161 576.398 212.161C576.92 212.161 577.34 212.336 577.658 212.686C577.98 213.031 578.141 213.505 578.141 214.107L578.134 219H579.149L579.156 214.121C579.156 213.65 579.242 213.272 579.415 212.987C579.592 212.698 579.816 212.488 580.087 212.357C580.357 212.226 580.635 212.161 580.92 212.161C581.419 212.161 581.83 212.329 582.152 212.665C582.478 212.996 582.642 213.454 582.642 214.037L582.635 219H583.664L583.671 213.841C583.671 213.043 583.442 212.411 582.985 211.944C582.532 211.473 581.923 211.237 581.158 211.237C580.654 211.237 580.201 211.351 579.8 211.58C579.398 211.804 579.088 212.114 578.869 212.511C578.663 212.096 578.367 211.781 577.98 211.566C577.597 211.347 577.158 211.237 576.664 211.237C576.216 211.237 575.807 211.328 575.439 211.51C575.07 211.687 574.769 211.93 574.536 212.238V211.44H573.612V219ZM587.649 219.21C588.97 219.21 589.929 218.722 590.526 217.747V219H591.443V214.303C591.443 214.023 591.429 213.748 591.401 213.477C591.373 213.206 591.312 212.961 591.219 212.742C591.018 212.252 590.675 211.879 590.19 211.622C589.709 211.361 589.124 211.23 588.433 211.23C587.602 211.23 586.926 211.417 586.403 211.79C585.88 212.163 585.53 212.688 585.353 213.365L586.354 213.659C586.499 213.155 586.748 212.786 587.103 212.553C587.462 212.32 587.901 212.203 588.419 212.203C589.138 212.203 589.651 212.371 589.959 212.707C590.267 213.038 590.426 213.545 590.435 214.226C590.099 214.273 589.728 214.322 589.322 214.373C588.921 214.424 588.517 214.483 588.111 214.548C587.705 214.613 587.332 214.688 586.991 214.772C586.426 214.921 585.964 215.171 585.605 215.521C585.246 215.866 585.066 216.349 585.066 216.97C585.066 217.371 585.162 217.742 585.353 218.083C585.544 218.424 585.831 218.697 586.214 218.902C586.601 219.107 587.08 219.21 587.649 219.21ZM587.768 218.321C587.362 218.321 587.035 218.256 586.788 218.125C586.545 217.99 586.368 217.819 586.256 217.614C586.149 217.404 586.095 217.189 586.095 216.97C586.095 216.559 586.233 216.251 586.508 216.046C586.783 215.841 587.082 215.691 587.404 215.598C587.819 215.486 588.302 215.395 588.853 215.325C589.404 215.255 589.926 215.19 590.421 215.129C590.421 215.302 590.414 215.5 590.4 215.724C590.391 215.943 590.365 216.146 590.323 216.333C590.225 216.902 589.954 217.376 589.511 217.754C589.072 218.132 588.491 218.321 587.768 218.321ZM593.405 210.005H594.434V208.85H593.405V210.005ZM593.405 219H594.434V211.44H593.405V219ZM596.673 219H597.702V208.71H596.673V219ZM604.766 219.21C606.087 219.21 607.046 218.722 607.643 217.747V219H608.56V214.303C608.56 214.023 608.546 213.748 608.518 213.477C608.49 213.206 608.429 212.961 608.336 212.742C608.135 212.252 607.792 211.879 607.307 211.622C606.826 211.361 606.241 211.23 605.55 211.23C604.719 211.23 604.043 211.417 603.52 211.79C602.997 212.163 602.647 212.688 602.47 213.365L603.471 213.659C603.616 213.155 603.865 212.786 604.22 212.553C604.579 212.32 605.018 212.203 605.536 212.203C606.255 212.203 606.768 212.371 607.076 212.707C607.384 213.038 607.543 213.545 607.552 214.226C607.216 214.273 606.845 214.322 606.439 214.373C606.038 214.424 605.634 214.483 605.228 214.548C604.822 214.613 604.449 214.688 604.108 214.772C603.543 214.921 603.081 215.171 602.722 215.521C602.363 215.866 602.183 216.349 602.183 216.97C602.183 217.371 602.279 217.742 602.47 218.083C602.661 218.424 602.948 218.697 603.331 218.902C603.718 219.107 604.197 219.21 604.766 219.21ZM604.885 218.321C604.479 218.321 604.152 218.256 603.905 218.125C603.662 217.99 603.485 217.819 603.373 217.614C603.266 217.404 603.212 217.189 603.212 216.97C603.212 216.559 603.35 216.251 603.625 216.046C603.9 215.841 604.199 215.691 604.521 215.598C604.936 215.486 605.419 215.395 605.97 215.325C606.521 215.255 607.043 215.19 607.538 215.129C607.538 215.302 607.531 215.5 607.517 215.724C607.508 215.943 607.482 216.146 607.44 216.333C607.342 216.902 607.071 217.376 606.628 217.754C606.189 218.132 605.608 218.321 604.885 218.321ZM613.315 219.21C613.866 219.21 614.349 219.098 614.764 218.874C615.18 218.645 615.523 218.335 615.793 217.943V219H616.717V208.92H615.681V212.329C615.406 211.984 615.065 211.715 614.659 211.524C614.258 211.328 613.796 211.23 613.273 211.23C612.583 211.23 611.99 211.405 611.495 211.755C611.001 212.105 610.62 212.581 610.354 213.183C610.093 213.785 609.962 214.462 609.962 215.213C609.962 215.969 610.093 216.648 610.354 217.25C610.62 217.852 611.003 218.33 611.502 218.685C612.006 219.035 612.611 219.21 613.315 219.21ZM613.42 218.251C612.898 218.251 612.459 218.118 612.104 217.852C611.754 217.581 611.491 217.217 611.313 216.76C611.141 216.303 611.054 215.787 611.054 215.213C611.054 214.644 611.141 214.13 611.313 213.673C611.486 213.216 611.747 212.854 612.097 212.588C612.452 212.322 612.9 212.189 613.441 212.189C614.23 212.189 614.818 212.471 615.205 213.036C615.597 213.596 615.793 214.322 615.793 215.213C615.793 215.796 615.707 216.317 615.534 216.774C615.362 217.231 615.1 217.593 614.75 217.859C614.4 218.12 613.957 218.251 613.42 218.251ZM621.614 219.21C622.165 219.21 622.648 219.098 623.063 218.874C623.479 218.645 623.822 218.335 624.092 217.943V219H625.016V208.92H623.98V212.329C623.705 211.984 623.364 211.715 622.958 211.524C622.557 211.328 622.095 211.23 621.572 211.23C620.882 211.23 620.289 211.405 619.794 211.755C619.3 212.105 618.919 212.581 618.653 213.183C618.392 213.785 618.261 214.462 618.261 215.213C618.261 215.969 618.392 216.648 618.653 217.25C618.919 217.852 619.302 218.33 619.801 218.685C620.305 219.035 620.91 219.21 621.614 219.21ZM621.719 218.251C621.197 218.251 620.758 218.118 620.403 217.852C620.053 217.581 619.79 217.217 619.612 216.76C619.44 216.303 619.353 215.787 619.353 215.213C619.353 214.644 619.44 214.13 619.612 213.673C619.785 213.216 620.046 212.854 620.396 212.588C620.751 212.322 621.199 212.189 621.74 212.189C622.529 212.189 623.117 212.471 623.504 213.036C623.896 213.596 624.092 214.322 624.092 215.213C624.092 215.796 624.006 216.317 623.833 216.774C623.661 217.231 623.399 217.593 623.049 217.859C622.699 218.12 622.256 218.251 621.719 218.251ZM626.98 219H628.009V215.227C628.009 214.774 628.06 214.324 628.163 213.876C628.27 213.423 628.513 213.048 628.891 212.749C629.166 212.525 629.465 212.397 629.787 212.364C630.114 212.327 630.417 212.341 630.697 212.406V211.44C630.366 211.356 629.99 211.354 629.57 211.433C629.15 211.508 628.791 211.676 628.492 211.937C628.268 212.105 628.072 212.338 627.904 212.637V211.44H626.98V219ZM635.087 219.21C635.82 219.21 636.476 219.03 637.054 218.671C637.638 218.312 638.079 217.801 638.377 217.138L637.418 216.767C636.938 217.738 636.147 218.223 635.045 218.223C634.289 218.223 633.697 217.987 633.267 217.516C632.843 217.045 632.609 216.375 632.567 215.507H638.524C638.562 214.172 638.27 213.127 637.649 212.371C637.033 211.61 636.165 211.23 635.045 211.23C634.317 211.23 633.685 211.393 633.148 211.72C632.616 212.047 632.203 212.511 631.909 213.113C631.615 213.715 631.468 214.429 631.468 215.255C631.468 216.053 631.615 216.748 631.909 217.341C632.208 217.934 632.628 218.393 633.169 218.72C633.715 219.047 634.355 219.21 635.087 219.21ZM635.073 212.175C636.497 212.175 637.288 212.999 637.446 214.646H632.588C632.668 213.848 632.92 213.237 633.344 212.812C633.769 212.387 634.345 212.175 635.073 212.175ZM642.899 219.203C643.827 219.203 644.555 219 645.083 218.594C645.615 218.183 645.881 217.621 645.881 216.907C645.881 216.515 645.797 216.186 645.629 215.92C645.465 215.654 645.183 215.423 644.782 215.227C644.385 215.031 643.839 214.844 643.144 214.667C642.551 214.518 642.094 214.38 641.772 214.254C641.454 214.128 641.235 213.995 641.114 213.855C640.992 213.71 640.932 213.538 640.932 213.337C640.932 212.978 641.1 212.691 641.436 212.476C641.772 212.261 642.208 212.159 642.745 212.168C643.314 212.177 643.783 212.313 644.152 212.574C644.52 212.831 644.742 213.181 644.817 213.624L645.867 213.435C645.815 212.996 645.652 212.611 645.377 212.28C645.101 211.949 644.737 211.692 644.285 211.51C643.837 211.323 643.328 211.23 642.759 211.23C642.189 211.23 641.688 211.321 641.254 211.503C640.824 211.68 640.488 211.932 640.246 212.259C640.008 212.581 639.889 212.957 639.889 213.386C639.889 213.736 639.968 214.035 640.127 214.282C640.29 214.525 640.568 214.742 640.96 214.933C641.352 215.12 641.888 215.306 642.57 215.493C643.209 215.666 643.687 215.815 644.005 215.941C644.327 216.067 644.541 216.205 644.649 216.354C644.756 216.499 644.81 216.688 644.81 216.921C644.81 217.332 644.644 217.658 644.313 217.901C643.981 218.144 643.529 218.265 642.955 218.265C642.367 218.265 641.872 218.139 641.471 217.887C641.069 217.63 640.815 217.287 640.708 216.858L639.658 217.033C639.788 217.714 640.138 218.246 640.708 218.629C641.282 219.012 642.012 219.203 642.899 219.203ZM650.254 219.203C651.183 219.203 651.911 219 652.438 218.594C652.97 218.183 653.236 217.621 653.236 216.907C653.236 216.515 653.152 216.186 652.984 215.92C652.821 215.654 652.538 215.423 652.137 215.227C651.74 215.031 651.194 214.844 650.499 214.667C649.906 214.518 649.449 214.38 649.127 214.254C648.81 214.128 648.59 213.995 648.469 213.855C648.348 213.71 648.287 213.538 648.287 213.337C648.287 212.978 648.455 212.691 648.791 212.476C649.127 212.261 649.563 212.159 650.1 212.168C650.669 212.177 651.138 212.313 651.507 212.574C651.876 212.831 652.097 213.181 652.172 213.624L653.222 213.435C653.171 212.996 653.007 212.611 652.732 212.28C652.457 211.949 652.093 211.692 651.64 211.51C651.192 211.323 650.683 211.23 650.114 211.23C649.545 211.23 649.043 211.321 648.609 211.503C648.18 211.68 647.844 211.932 647.601 212.259C647.363 212.581 647.244 212.957 647.244 213.386C647.244 213.736 647.323 214.035 647.482 214.282C647.645 214.525 647.923 214.742 648.315 214.933C648.707 215.12 649.244 215.306 649.925 215.493C650.564 215.666 651.043 215.815 651.36 215.941C651.682 216.067 651.897 216.205 652.004 216.354C652.111 216.499 652.165 216.688 652.165 216.921C652.165 217.332 651.999 217.658 651.668 217.901C651.337 218.144 650.884 218.265 650.31 218.265C649.722 218.265 649.227 218.139 648.826 217.887C648.425 217.63 648.17 217.287 648.063 216.858L647.013 217.033C647.144 217.714 647.494 218.246 648.063 218.629C648.637 219.012 649.367 219.203 650.254 219.203Z" fill="#474A57"/>
<path d="M732 190H839C841.761 190 844 192.239 844 195V233C844 235.761 841.761 238 839 238H732V190Z" fill="#F4A334"/>
<path d="M758.996 219.21C759.537 219.21 760.03 219.1 760.473 218.881C760.916 218.662 761.276 218.312 761.551 217.831C761.742 217.5 761.845 217.18 761.859 216.872C761.878 216.559 761.887 216.17 761.887 215.703V208.92H760.179V215.703C760.179 215.978 760.172 216.221 760.158 216.431C760.149 216.636 760.111 216.814 760.046 216.963C759.939 217.196 759.775 217.367 759.556 217.474C759.337 217.577 759.129 217.628 758.933 217.628C758.634 217.628 758.361 217.525 758.114 217.32C757.867 217.115 757.717 216.87 757.666 216.585L756 216.984C756.205 217.661 756.562 218.202 757.071 218.608C757.58 219.009 758.221 219.21 758.996 219.21ZM767.333 219.21C768.089 219.21 768.749 219.042 769.314 218.706C769.878 218.365 770.317 217.896 770.63 217.299C770.947 216.697 771.106 216.004 771.106 215.22C771.106 214.441 770.949 213.752 770.637 213.155C770.324 212.553 769.885 212.082 769.321 211.741C768.756 211.4 768.093 211.23 767.333 211.23C766.591 211.23 765.937 211.398 765.373 211.734C764.808 212.07 764.367 212.537 764.05 213.134C763.732 213.731 763.574 214.427 763.574 215.22C763.574 215.999 763.728 216.69 764.036 217.292C764.348 217.889 764.787 218.358 765.352 218.699C765.916 219.04 766.577 219.21 767.333 219.21ZM767.333 217.628C766.684 217.628 766.192 217.411 765.856 216.977C765.524 216.538 765.359 215.953 765.359 215.22C765.359 214.506 765.517 213.927 765.835 213.484C766.157 213.036 766.656 212.812 767.333 212.812C767.995 212.812 768.492 213.031 768.824 213.47C769.155 213.904 769.321 214.487 769.321 215.22C769.321 215.929 769.155 216.508 768.824 216.956C768.497 217.404 768 217.628 767.333 217.628ZM772.788 210.292H774.475V208.745H772.788V210.292ZM772.788 219H774.475V211.44H772.788V219ZM776.558 219H778.266V215.115C778.266 214.504 778.352 214.032 778.525 213.701C778.702 213.365 778.926 213.134 779.197 213.008C779.472 212.877 779.752 212.812 780.037 212.812C780.438 212.812 780.758 212.901 780.996 213.078C781.234 213.251 781.409 213.472 781.521 213.743C781.637 214.009 781.712 214.287 781.745 214.576C781.782 214.865 781.801 215.127 781.801 215.36V219H783.509V214.779C783.509 214.602 783.492 214.366 783.46 214.072C783.432 213.778 783.366 213.468 783.264 213.141C783.161 212.814 783.002 212.506 782.788 212.217C782.573 211.923 782.281 211.685 781.913 211.503C781.549 211.316 781.089 211.223 780.534 211.223C779.988 211.223 779.507 211.319 779.092 211.51C778.681 211.697 778.338 211.953 778.063 212.28V211.44H776.558V219ZM790.941 219H792.649V211.895L797.325 219H799.033V208.92H797.325V216.025L792.649 208.92H790.941V219ZM804.329 219.21C805.085 219.21 805.745 219.042 806.31 218.706C806.874 218.365 807.313 217.896 807.626 217.299C807.943 216.697 808.102 216.004 808.102 215.22C808.102 214.441 807.945 213.752 807.633 213.155C807.32 212.553 806.881 212.082 806.317 211.741C805.752 211.4 805.089 211.23 804.329 211.23C803.587 211.23 802.933 211.398 802.369 211.734C801.804 212.07 801.363 212.537 801.046 213.134C800.728 213.731 800.57 214.427 800.57 215.22C800.57 215.999 800.724 216.69 801.032 217.292C801.344 217.889 801.783 218.358 802.348 218.699C802.912 219.04 803.573 219.21 804.329 219.21ZM804.329 217.628C803.68 217.628 803.188 217.411 802.852 216.977C802.52 216.538 802.355 215.953 802.355 215.22C802.355 214.506 802.513 213.927 802.831 213.484C803.153 213.036 803.652 212.812 804.329 212.812C804.991 212.812 805.488 213.031 805.82 213.47C806.151 213.904 806.317 214.487 806.317 215.22C806.317 215.929 806.151 216.508 805.82 216.956C805.493 217.404 804.996 217.628 804.329 217.628ZM810.981 219H812.297L814.005 213.799L815.72 219H817.036L819.346 211.44H817.694L816.21 216.291L814.719 211.44H813.298L811.8 216.291L810.323 211.44L808.671 211.426L810.981 219Z" fill="white"/>
<defs>
<filter id="filter0_d_2_442" x="0" y="0" width="1118" height="296" filterUnits="userSpaceOnUse" color-interpolation-filters="sRGB">
<feFlood flood-opacity="0" result="BackgroundImageFix"/>
<feColorMatrix in="SourceAlpha" type="matrix" values="0 0 0 0 0 0 0 0 0 0 0 0 0 0 0 0 0 0 127 0" result="hardAlpha"/>
<feOffset dy="4"/>
<feGaussianBlur stdDeviation="2"/>
<feComposite in2="hardAlpha" operator="out"/>
<feColorMatrix type="matrix" values="0 0 0 0 0 0 0 0 0 0 0 0 0 0 0 0 0 0 0.25 0"/>
<feBlend mode="normal" in2="BackgroundImageFix" result="effect1_dropShadow_2_442"/>
<feBlend mode="normal" in="SourceGraphic" in2="effect1_dropShadow_2_442" result="shape"/>
</filter>
<clipPath id="clip0_2_442">
<rect width="120" height="120" fill="white" transform="translate(222 78)"/>
</clipPath>
<clipPath id="clip1_2_442">
<rect width="64" height="24" fill="white" transform="translate(250 110)"/>
</clipPath>
</defs>
</svg>
